<svg width="100" height="25" viewBox="0 0 100 25" fill="none" xmlns="http://www.w3.org/2000/svg">
<path id="BRICK-logo" fill-rule="evenodd" clip-rule="evenodd" d="M0 24.531L2.96243 0.468975H10.6575C13.7645 0.468975 15.2095 0.79365 16.3656 1.69553C17.5939 2.63348 18.2803 4.25685 18.2803 6.06061C18.2803 7.43146 17.8829 8.80231 17.1965 9.81241C16.474 10.8586 15.896 11.3276 14.3425 12.013C15.8598 12.3737 16.4379 12.6263 17.1965 13.2756C18.2442 14.1775 18.8223 15.5844 18.8223 17.2799C18.8223 20.202 17.0159 22.8355 14.2341 23.9177C13.0419 24.3867 11.8497 24.531 9.5737 24.531H0ZM9.57369 5.26696H8.45375L7.87572 10.0289H8.74277C11.4162 10.0289 12.5 9.23521 12.5 7.35931C12.5 5.73593 11.8497 5.26696 9.57369 5.26696ZM9.14017 14.5382H7.29769L6.68353 19.733H8.34538C11.3439 19.733 12.5 18.8672 12.5 16.811C12.5 15.0433 11.7775 14.5382 9.14017 14.5382ZM39.1618 13.2756C38.2948 14.2136 37.6445 14.6104 35.9827 15.1876L41.6185 24.531H34.5376L29.0462 14.9711L27.8902 24.531H21.7847L24.7471 0.468975H32.5867C35.8743 0.468975 37.8974 1.11833 39.2702 2.56133C40.4263 3.78788 41.1127 5.77201 41.1127 7.93651C41.1127 10.101 40.4624 11.9048 39.1618 13.2756ZM31.3945 5.30303H30.2384L29.4798 11.4719H30.5636C33.4899 11.4719 34.8266 10.3896 34.8266 8.11688C34.8266 6.02453 33.9595 5.30303 31.3945 5.30303ZM47.146 0.468975L44.1835 24.531H50.289L53.2514 0.468975H47.146ZM68.7861 0C61.4162 0 55.6358 5.73593 55.6358 13.0592C55.6358 20.0577 60.6214 25 67.7384 25C69.5809 25 70.7731 24.7835 73.4104 23.8456L74.1691 17.7128C72.2905 18.759 70.5202 19.228 68.6416 19.228C64.6315 19.228 61.8858 16.6306 61.8858 12.7706C61.8858 8.69408 65.0289 5.77201 69.4725 5.77201C71.6763 5.77201 73.591 6.49351 75.3613 7.97258L76.0838 2.0202C73.5188 0.577201 71.3873 0 68.7861 0ZM80.2384 0.468975L77.276 24.531H83.3815L84.7182 13.6724C85.1879 14.6104 85.8743 15.873 86.5246 16.847L91.6907 24.531H99.0246L90.7876 12.7345L100 0.468975H92.9913L85.0433 11.0029L86.3439 0.468975H80.2384Z" fill="black"/>
</svg>
